# xmcd
# Track frame offsets:
# 202
# 9175
# 16950
# 26145
# 34005
# 42040
# 53932
# 65852
# 72032
# 75500
# 77990
# 89737
# 95107
# 101040
# 109267
# 113417
# 117645
# 122462
# 127997
# 132112
# 140987
#
# Disc length: 1957 seconds
# Revision: 0
# Processed by: cddbd v1.4PL0 Copyright (c) Steve Scherf et al.
# Submitted via: VisiTrax 2.9.5.180 - For more info visit www.synapsa.com
#
DISCID=2307a315
DTITLE=Jessi Colter - Jessi Colter Sings Just For Kids
DYEAR=1991
DGENRE=
TTITLE0=I´d Like To Sing With Kids
TTITLE1=La Cucaracha
TTITLE2=Old King Cole
TTITLE3=I´d Like To Teach The World
TTITLE4=A Windmill In Old Amsterdam
TTITLE5=The La La Song
TTITLE6=Octopus`s Garden
TTITLE7=Mary Ann
TTITLE8=Frere Jacques
TTITLE9=Babushka Baio
TTITLE10=Too Ra Loo Ra Loo Ral
TTITLE11=Twinkle,Twinkle Little Star
TTITLE12=This Land Is Your Land
TTITLE13=Choo Choo Ba
TTITLE14=London Bridge
TTITLE15=Did You Ever See A Lassie
TTITLE16=Jasmine Flower
TTITLE17=Bubbles and Bubbles
TTITLE18=Funiculi,Funicula
TTITLE19=He`s Got The Whole Worl
TTITLE20=Aloha Oe
EXTD=Peter Pan Records\n9945-2\nSpecial Guest Appearance\nWAYLON jENNINGS
EXTT0=
EXTT1=
EXTT2=
EXTT3=
EXTT4=
EXTT5=
EXTT6=
EXTT7=
EXTT8=
EXTT9=
EXTT10=
EXTT11=
EXTT12=
EXTT13=
EXTT14=
EXTT15=
EXTT16=
EXTT17=
EXTT18=
EXTT19=
EXTT20=
PLAYORDER=
